<?xml version="1.0" encoding="UTF-8"?>
<svg id="Camada_1" data-name="Camada 1" xmlns="http://www.w3.org/2000/svg" viewBox="0 0 683.32 369.85">
  <defs>
    <style>
      .cls-1 {
        fill: #231f20;
      }

      .cls-2 {
        fill: #037bba;
      }
    </style>
  </defs>
  <g>
    <path class="cls-1" d="M447.75,193.77c-15.05-21.65-52.33-25.53-73.17-37.62-9.89-4.93-10.79-19.41-3.36-25.88,11.13-9.06,31.77-3.32,34.28,11.38.31,1.84,1.88,3.17,3.72,3.17h40.29c2.21,0,3.92-1.9,3.76-4.11-4.59-60.5-110.35-67.78-130.47-15.03-11.17,34.63,5.03,62.94,63.02,76.57,40.14,8.48,23.11,50.45-9.14,35.2-1.75-.83-3.86-.27-4.88,1.4-5.36,8.89-12.3,16.72-20.56,23.3-2.19,1.73-1.73,5.22.81,6.37,30.92,13.76,77.32,9.81,95.84-20.12,10.02-15.2,10.98-40.69-.13-54.61Z"/>
    <path class="cls-1" d="M211.19,256c1.8,1.72,1.53,4.68-.6,5.98-60.79,36.92-147.04-.45-148.48-78.51-1.45-78.76,87.56-115.87,148.45-78.68,2.12,1.29,2.39,4.25.6,5.96-8.35,8-15.23,17.74-20.13,28.34-1.02,2.21-3.78,2.89-5.73,1.44-31.59-23.66-76.36-2.76-76.75,42.74-.37,43.73,44.73,67.05,76.77,43.13,1.95-1.45,4.71-.78,5.73,1.43,4.9,10.55,11.79,20.21,20.14,28.17Z"/>
    <path class="cls-1" d="M364.95,223.92c2.73,0,4.54,2.81,3.45,5.31-31.2,71.77-179,63.08-179-44.72,0-59.11,50.25-118.72,136.24-85.95,2.48.94,3.18,4.12,1.34,6.03-7.72,8.06-12.49,17.93-14.24,29.49-.4,2.62-3.27,4-5.59,2.72-32.48-17.95-70.74,5.51-70.74,46.84,0,44.38,44.4,67.43,76.45,42.63,1.95-1.51,4.33-2.35,6.79-2.35h45.28Z"/>
  </g>
  <g>
    <path class="cls-2" d="M493.52,218.8v-63.28h10.29v23.34h31.12v-23.34h10.29v63.28h-10.29v-30.73h-31.12v30.73h-10.29Z"/>
    <path class="cls-2" d="M553.28,155.52h10.16v38.43c0,5.71,1.32,9.99,3.95,12.86,2.64,2.87,6.58,4.3,11.82,4.3s9.14-1.43,11.78-4.3c2.64-2.87,3.96-7.15,3.96-12.86v-38.43h10.29v39.38c0,8.56-2.16,14.96-6.48,19.21-4.32,4.25-10.83,6.38-19.54,6.38s-15.2-2.12-19.49-6.35c-4.29-4.24-6.44-10.65-6.44-19.23v-39.38Z"/>
    <path class="cls-2" d="M613.22,218.8v-63.28h15.95c4.55,0,7.92.25,10.09.73,2.18.49,4.03,1.3,5.55,2.42,1.96,1.44,3.48,3.33,4.56,5.66,1.08,2.33,1.62,4.91,1.62,7.74,0,3.37-.78,6.19-2.33,8.45-1.56,2.26-3.82,3.84-6.79,4.73,3.69.58,6.59,2.25,8.71,5.04,2.12,2.78,3.18,6.29,3.18,10.52,0,2.56-.45,5-1.34,7.3-.89,2.31-2.16,4.27-3.8,5.88-1.73,1.76-3.88,3-6.44,3.72-2.57.72-6.87,1.08-12.92,1.08h-16.04ZM623.29,182.24h3.93c4.9,0,8.36-.67,10.4-2.01s3.05-3.59,3.05-6.76c0-3.46-.94-5.89-2.81-7.28-1.87-1.4-5.42-2.1-10.63-2.1h-3.93v18.15ZM623.29,210.2h3.54c3.6,0,6.3-.14,8.08-.43,1.79-.29,3.2-.79,4.24-1.51,1.27-.84,2.25-1.96,2.94-3.37.69-1.41,1.04-2.97,1.04-4.67,0-2.02-.42-3.77-1.25-5.27-.84-1.5-2.03-2.67-3.59-3.5-.98-.49-2.1-.85-3.35-1.08-1.25-.23-2.92-.35-4.99-.35h-6.66v20.19Z"/>
  </g>
</svg>